<?xml version="1.0" encoding="utf-8"?>
<!-- Generator: Adobe Illustrator 23.0.1, SVG Export Plug-In . SVG Version: 6.00 Build 0)  -->
<svg version="1.1" id="Layer_1" xmlns="http://www.w3.org/2000/svg" xmlns:xlink="http://www.w3.org/1999/xlink" x="0px" y="0px"
	 viewBox="0 0 64 64" style="enable-background:new 0 0 64 64;" xml:space="preserve">
<style type="text/css">
	.st0{fill:#555555;}
	.st1{fill:#555555;}
</style>
<path class="st0" d="M23.5,22.7l7-17.3c-0.5-2.8-3-5-6-5H6.1C2.7,0.4,0,3.1,0,6.5v18.4C0,28.3,2.7,31,6.1,31H9l-7.4-6.5L23.5,22.7z"
	/>
<path class="st0" d="M62.5,24.5L55,31h2.9c3.4,0,6.1-2.7,6.1-6.1V6.5c0-3.4-2.7-6.1-6.1-6.1H39.5c-3,0-5.5,2.2-6,5l7,17.3L62.5,24.5
	z"/>
<path class="st0" d="M18.3,39.1l-7-6.1H6.1C2.7,33,0,35.7,0,39.1v18.4c0,3.4,2.7,6.1,6.1,6.1h18.4c3.4,0,6.1-2.7,6.1-6.1v-7.3
	l-17.5,11L18.3,39.1z"/>
<path class="st0" d="M50.9,61.2l-17.5-11v7.3c0,3.4,2.7,6.1,6.1,6.1h18.4c3.4,0,6.1-2.7,6.1-6.1V39.1c0-3.4-2.7-6.1-6.1-6.1h-5.1
	l-7,6.1L50.9,61.2z"/>
<polygon class="st1" points="52.1,27.9 37.6,26.7 32,13 26.4,26.7 11.9,27.9 23,37.6 19.6,52.1 32,44.3 44.4,52.1 41,37.6 "/>
</svg>
