<?xml version="1.0" encoding="utf-8"?>
<!-- Generator: Adobe Illustrator 23.0.1, SVG Export Plug-In . SVG Version: 6.00 Build 0)  -->
<svg version="1.1" id="Layer_1" xmlns="http://www.w3.org/2000/svg" xmlns:xlink="http://www.w3.org/1999/xlink" x="0px" y="0px"
	 viewBox="0 0 70 70" style="enable-background:new 0 0 70 70;" xml:space="preserve">
<style type="text/css">
	.st0{fill:#AC677E;}
</style>
<path class="st0" d="M35,67.2l-28.9-29C2.2,34.3,0,29.1,0,23.6S2.2,12.8,6.1,8.9s9.1-6.1,14.6-6.1c5.4,0,10.4,2,14.3,5.7
	c3.9-3.7,8.9-5.7,14.3-5.7C54.8,2.8,60,5,63.9,8.9S70,18,70,23.6s-2.2,10.7-6.1,14.7L35,67.2z M20.7,5.5c-4.8,0-9.4,1.9-12.8,5.3
	s-5.3,7.9-5.3,12.8s2,9.3,5.4,12.7l27,27l27-27c3.4-3.4,5.3-7.9,5.3-12.8s-1.9-9.4-5.3-12.8s-7.9-5.3-12.8-5.3
	c-4.8,0-9.4,1.9-12.8,5.3L35,12.3l-1.5-1.5C30.1,7.4,25.6,5.5,20.7,5.5z"/>
<path class="st0" d="M58.2,14.6c-2.4-2.4-5.6-3.7-9-3.7s-6.6,1.3-9,3.7l-1.5,1.5L36.9,18L35,19.9L33.1,18l-1.9-1.9l-1.5-1.5
	c-2.4-2.4-5.6-3.7-9-3.7s-6.6,1.3-9,3.7S8,20.2,8,23.6s1.3,6.6,3.7,9L35,55.8l23.2-23.2c2.4-2.4,3.7-5.6,3.7-9S60.6,17,58.2,14.6z"
	/>
</svg>
