<?xml version="1.0" encoding="utf-8"?>
<!-- Generator: Adobe Illustrator 23.0.1, SVG Export Plug-In . SVG Version: 6.00 Build 0)  -->
<svg version="1.1" id="Layer_1" xmlns="http://www.w3.org/2000/svg" xmlns:xlink="http://www.w3.org/1999/xlink" x="0px" y="0px"
	 viewBox="0 0 100 100" style="enable-background:new 0 0 100 100;" xml:space="preserve">
<style type="text/css">
	.st0{fill:#666666;}
	.st1{fill:#898989;}
	.st2{fill:#AC677E;}
</style>
<g>
	<g>
		<path class="st0" d="M8.8,11.2h0.1c1.2,0,2.2-1,2.2-2.2V8.9L8.8,11.2z"/>
		<path class="st0" d="M0,2.1l2.1-2.1C1,0.1,0.1,1,0,2.1z"/>
		<polygon class="st0" points="0,3 0,5.5 5.5,0.1 2.9,0.1 		"/>
		<polygon class="st0" points="6.4,0.1 0,6.4 0,8.9 8.9,0.1 		"/>
		<path class="st0" d="M11.2,2.3c0-0.1,0-0.1,0-0.2L2,11.2c0.1,0,0.1,0,0.2,0h2.3l6.6-6.6V2.3z"/>
		<path class="st0" d="M9.7,0.2L0.1,9.7c0.2,0.6,0.6,1.1,1.2,1.3L11,1.4C10.7,0.8,10.2,0.4,9.7,0.2z"/>
		<polygon class="st0" points="11.2,5.5 5.4,11.2 8,11.2 11.2,8 		"/>
	</g>
	<path class="st1" d="M88.1,11H14.9c-1,0-1.8-0.8-1.8-1.8V1.8c0-1,0.8-1.8,1.8-1.8h73.3c1,0,1.8,0.8,1.8,1.8v7.4
		C90,10.2,89.2,11,88.1,11z"/>
	<g>
		<path class="st0" d="M8.8,23.9h0.1c1.2,0,2.2-1,2.2-2.2v-0.1L8.8,23.9z"/>
		<path class="st0" d="M0,14.8l2.1-2.1C1,12.8,0.1,13.7,0,14.8z"/>
		<polygon class="st0" points="0,15.7 0,18.2 5.5,12.7 2.9,12.7 		"/>
		<polygon class="st0" points="6.4,12.7 0,19.1 0,21.6 8.9,12.7 		"/>
		<path class="st0" d="M11.2,15c0-0.1,0-0.1,0-0.2L2,23.9c0.1,0,0.1,0,0.2,0h2.3l6.6-6.6V15z"/>
		<path class="st0" d="M9.7,12.9l-9.5,9.5c0.2,0.6,0.6,1.1,1.2,1.3l9.6-9.6C10.7,13.5,10.2,13.1,9.7,12.9z"/>
		<polygon class="st0" points="11.2,18.2 5.4,23.9 8,23.9 11.2,20.7 		"/>
	</g>
	<path class="st1" d="M88.1,23.7H14.9c-1,0-1.8-0.8-1.8-1.8v-7.4c0-1,0.8-1.8,1.8-1.8h73.3c1,0,1.8,0.8,1.8,1.8v7.4
		C90,22.9,89.2,23.7,88.1,23.7z"/>
	<g>
		<path class="st0" d="M8.8,36.6h0.1c1.2,0,2.2-1,2.2-2.2v-0.1L8.8,36.6z"/>
		<path class="st0" d="M0,27.5l2.1-2.1C1,25.5,0.1,26.4,0,27.5z"/>
		<polygon class="st0" points="0,28.4 0,30.9 5.5,25.4 2.9,25.4 		"/>
		<polygon class="st0" points="6.4,25.4 0,31.8 0,34.3 8.9,25.4 		"/>
		<path class="st0" d="M11.2,27.6c0-0.1,0-0.1,0-0.2L2,36.6c0.1,0,0.1,0,0.2,0h2.3l6.6-6.6V27.6z"/>
		<path class="st0" d="M9.7,25.5l-9.5,9.5c0.2,0.6,0.6,1.1,1.2,1.3l9.6-9.6C10.7,26.2,10.2,25.7,9.7,25.5z"/>
		<polygon class="st0" points="11.2,30.8 5.4,36.6 8,36.6 11.2,33.4 		"/>
	</g>
	<path class="st1" d="M88.1,36.4H14.9c-1,0-1.8-0.8-1.8-1.8v-7.4c0-1,0.8-1.8,1.8-1.8h73.3c1,0,1.8,0.8,1.8,1.8v7.4
		C90,35.6,89.2,36.4,88.1,36.4z"/>
	<g>
		<path class="st0" d="M8.8,49.3h0.1c1.2,0,2.2-1,2.2-2.2v-0.1L8.8,49.3z"/>
		<path class="st0" d="M0,40.2l2.1-2.1C1,38.2,0.1,39.1,0,40.2z"/>
		<polygon class="st0" points="0,41 0,43.6 5.5,38.1 2.9,38.1 		"/>
		<polygon class="st0" points="6.4,38.1 0,44.5 0,47 8.9,38.1 		"/>
		<path class="st0" d="M11.2,40.3c0-0.1,0-0.1,0-0.2L2,49.3c0.1,0,0.1,0,0.2,0h2.3l6.6-6.6V40.3z"/>
		<path class="st0" d="M9.7,38.2l-9.5,9.5c0.2,0.6,0.6,1.1,1.2,1.3l9.6-9.6C10.7,38.9,10.2,38.4,9.7,38.2z"/>
		<polygon class="st0" points="11.2,43.5 5.4,49.3 8,49.3 11.2,46.1 		"/>
	</g>
	<path class="st1" d="M88.1,49.1H14.9c-1,0-1.8-0.8-1.8-1.8v-7.4c0-1,0.8-1.8,1.8-1.8h73.3c1,0,1.8,0.8,1.8,1.8v7.4
		C90,48.3,89.2,49.1,88.1,49.1z"/>
	<g>
		<path class="st0" d="M8.8,62h0.1c1.2,0,2.2-1,2.2-2.2v-0.1L8.8,62z"/>
		<path class="st0" d="M0,52.8l2.1-2.1C1,50.9,0.1,51.7,0,52.8z"/>
		<polygon class="st0" points="0,53.7 0,56.3 5.5,50.8 2.9,50.8 		"/>
		<polygon class="st0" points="6.4,50.8 0,57.1 0,59.7 8.9,50.8 		"/>
		<path class="st0" d="M11.2,53c0-0.1,0-0.1,0-0.2L2,61.9c0.1,0,0.1,0,0.2,0h2.3l6.6-6.6V53z"/>
		<path class="st0" d="M9.7,50.9l-9.5,9.5c0.2,0.6,0.6,1.1,1.2,1.3l9.6-9.6C10.7,51.5,10.2,51.1,9.7,50.9z"/>
		<polygon class="st0" points="11.2,56.2 5.4,62 8,62 11.2,58.7 		"/>
	</g>
	<path class="st1" d="M88.1,61.8H14.9c-1,0-1.8-0.8-1.8-1.8v-7.4c0-1,0.8-1.8,1.8-1.8h73.3c1,0,1.8,0.8,1.8,1.8v7.4
		C90,60.9,89.2,61.8,88.1,61.8z"/>
	<g>
		<path class="st0" d="M8.8,74.6h0.1c1.2,0,2.2-1,2.2-2.2v-0.1L8.8,74.6z"/>
		<path class="st0" d="M0,65.5l2.1-2.1C1,63.6,0.1,64.4,0,65.5z"/>
		<polygon class="st0" points="0,66.4 0,68.9 5.5,63.5 2.9,63.5 		"/>
		<polygon class="st0" points="6.4,63.5 0,69.8 0,72.4 8.9,63.5 		"/>
		<path class="st0" d="M11.2,65.7c0-0.1,0-0.1,0-0.2L2,74.6c0.1,0,0.1,0,0.2,0h2.3l6.6-6.6V65.7z"/>
		<path class="st0" d="M9.7,63.6l-9.5,9.5c0.2,0.6,0.6,1.1,1.2,1.3l9.6-9.6C10.7,64.2,10.2,63.8,9.7,63.6z"/>
		<polygon class="st0" points="11.2,68.9 5.4,74.6 8,74.6 11.2,71.4 		"/>
	</g>
	<path class="st1" d="M88.1,74.4H14.9c-1,0-1.8-0.8-1.8-1.8v-7.4c0-1,0.8-1.8,1.8-1.8h73.3c1,0,1.8,0.8,1.8,1.8v7.4
		C90,73.6,89.2,74.4,88.1,74.4z"/>
	<g>
		<path class="st0" d="M8.8,87.3h0.1c1.2,0,2.2-1,2.2-2.2V85L8.8,87.3z"/>
		<path class="st0" d="M0,78.2l2.1-2.1C1,76.2,0.1,77.1,0,78.2z"/>
		<polygon class="st0" points="0,79.1 0,81.6 5.5,76.1 2.9,76.1 		"/>
		<polygon class="st0" points="6.4,76.1 0,82.5 0,85 8.9,76.1 		"/>
		<path class="st0" d="M11.2,78.4c0-0.1,0-0.1,0-0.2L2,87.3c0.1,0,0.1,0,0.2,0h2.3l6.6-6.6V78.4z"/>
		<path class="st0" d="M9.7,76.3l-9.5,9.5c0.2,0.6,0.6,1.1,1.2,1.3l9.6-9.6C10.7,76.9,10.2,76.5,9.7,76.3z"/>
		<polygon class="st0" points="11.2,81.6 5.4,87.3 8,87.3 11.2,84.1 		"/>
	</g>
	<path class="st1" d="M88.1,87.1H14.9c-1,0-1.8-0.8-1.8-1.8v-7.4c0-1,0.8-1.8,1.8-1.8h73.3c1,0,1.8,0.8,1.8,1.8v7.4
		C90,86.3,89.2,87.1,88.1,87.1z"/>
	<g>
		<path class="st0" d="M8.8,100h0.1c1.2,0,2.2-1,2.2-2.2v-0.1L8.8,100z"/>
		<path class="st0" d="M0,90.9l2.1-2.1C1,88.9,0.1,89.8,0,90.9z"/>
		<polygon class="st0" points="0,91.8 0,94.3 5.5,88.8 2.9,88.8 		"/>
		<polygon class="st0" points="6.4,88.8 0,95.2 0,97.7 8.9,88.8 		"/>
		<path class="st0" d="M11.2,91.1c0-0.1,0-0.1,0-0.2L2,100c0.1,0,0.1,0,0.2,0h2.3l6.6-6.6C11.2,93.4,11.2,91.1,11.2,91.1z"/>
		<path class="st0" d="M9.7,89l-9.5,9.5c0.2,0.6,0.6,1.1,1.2,1.3l9.6-9.6C10.7,89.6,10.2,89.2,9.7,89z"/>
		<polygon class="st0" points="11.2,94.3 5.4,100 8,100 11.2,96.8 		"/>
	</g>
	<path class="st1" d="M88.1,99.8H14.9c-1,0-1.8-0.8-1.8-1.8v-7.4c0-1,0.8-1.8,1.8-1.8h73.3c1,0,1.8,0.8,1.8,1.8V98
		C90,99,89.2,99.8,88.1,99.8z"/>
	<circle class="st2" cx="96.1" cy="5.6" r="3.9"/>
	<circle class="st1" cx="96.1" cy="18.4" r="3.9"/>
	<circle class="st1" cx="96.1" cy="31.1" r="3.9"/>
	<circle class="st2" cx="96.1" cy="43.8" r="3.9"/>
	<circle class="st2" cx="96.1" cy="56.6" r="3.9"/>
	<circle class="st1" cx="96.1" cy="69.3" r="3.9"/>
	<circle class="st2" cx="96.1" cy="82" r="3.9"/>
	<circle class="st1" cx="96.1" cy="94.8" r="3.9"/>
</g>
</svg>
