<?xml version="1.0" encoding="utf-8"?>
<!-- Generator: Adobe Illustrator 23.0.1, SVG Export Plug-In . SVG Version: 6.00 Build 0)  -->
<svg version="1.1" id="Layer_1" xmlns="http://www.w3.org/2000/svg" xmlns:xlink="http://www.w3.org/1999/xlink" x="0px" y="0px"
	 viewBox="0 0 100 100" style="enable-background:new 0 0 100 100;" xml:space="preserve">
<style type="text/css">
	.st0{fill:#AC677E;}
	.st1{fill:#898989;}
	.st2{fill:#6D6E71;}
</style>
<g>
	<g>
		<rect y="0" class="st0" width="31.6" height="15"/>
		<rect x="34.2" y="0" class="st0" width="31.6" height="15"/>
		<rect x="68.4" y="0" class="st0" width="31.6" height="15"/>
	</g>
	<g>
		<rect y="17" class="st1" width="31.6" height="15"/>
		<rect x="34.2" y="17" class="st1" width="31.6" height="15"/>
		<rect x="68.4" y="17" class="st1" width="31.6" height="15"/>
	</g>
	<g>
		<rect y="34" class="st2" width="31.6" height="15"/>
		<rect x="34.2" y="34" class="st2" width="31.6" height="15"/>
		<rect x="68.4" y="34" class="st2" width="31.6" height="15"/>
	</g>
	<g>
		<rect y="51" class="st1" width="31.6" height="15"/>
		<rect x="34.2" y="51" class="st1" width="31.6" height="15"/>
		<rect x="68.4" y="51" class="st1" width="31.6" height="15"/>
	</g>
	<g>
		<rect y="68" class="st2" width="31.6" height="15"/>
		<rect x="34.2" y="68" class="st2" width="31.6" height="15"/>
		<rect x="68.4" y="68" class="st2" width="31.6" height="15"/>
	</g>
	<g>
		<rect y="85" class="st1" width="31.6" height="15"/>
		<rect x="34.2" y="85" class="st1" width="31.6" height="15"/>
		<rect x="68.4" y="85" class="st1" width="31.6" height="15"/>
	</g>
</g>
</svg>
