<?xml version="1.0" encoding="utf-8"?>
<!-- Generator: Adobe Illustrator 23.0.1, SVG Export Plug-In . SVG Version: 6.00 Build 0)  -->
<svg version="1.1" id="Layer_1" xmlns="http://www.w3.org/2000/svg" xmlns:xlink="http://www.w3.org/1999/xlink" x="0px" y="0px"
	 viewBox="0 0 100 100" style="enable-background:new 0 0 100 100;" xml:space="preserve">
<style type="text/css">
	.st0{opacity:0.2;fill:#414042;enable-background:new    ;}
	.st1{fill:#AC677E;}
	.st2{fill:#898989;}
</style>
<rect y="0" class="st0" width="100" height="100"/>
<g>
	<path class="st1" d="M15.1,30.2h-2.6l0.4-18.4h74.2l0.4,18.4h-2.4c-0.9-5-2-8.7-3.6-10.9c-1.5-2.2-3.1-3.6-4.8-4.1
		c-1.7-0.5-4.7-0.8-8.8-0.8H55.5v53.9c0,6,0.1,9.9,0.4,11.8c0.3,1.9,1,3.3,2.3,4.2c1.2,0.9,3.6,1.4,7,1.4h3.7v2.6H30.8v-2.6h3.9
		c3.3,0,5.5-0.4,6.8-1.2c1.3-0.8,2.1-2.1,2.4-3.9c0.4-1.7,0.5-5.8,0.5-12.2V14.4H33.2c-4.9,0-8.2,0.2-9.9,0.7
		c-1.7,0.5-3.3,1.9-4.8,4.3C17,21.7,15.9,25.3,15.1,30.2z"/>
</g>
<g>
	<path class="st2" d="M99,1v98H1V1H99 M100,0H0v100h100V0L100,0z"/>
</g>
</svg>
