<?xml version="1.0" encoding="utf-8"?>
<!-- Generator: Adobe Illustrator 23.0.1, SVG Export Plug-In . SVG Version: 6.00 Build 0)  -->
<svg version="1.1" id="Layer_1" xmlns="http://www.w3.org/2000/svg" xmlns:xlink="http://www.w3.org/1999/xlink" x="0px" y="0px"
	 viewBox="0 0 100 100" style="enable-background:new 0 0 100 100;" xml:space="preserve">
<style type="text/css">
	.st0{fill:#898989;}
	.st1{fill:#AC677E;}
</style>
<g>
	<path class="st0" d="M0,98V74.4c0-1.1,0.9-2,2-2h96c1.1,0,2,0.9,2,2V98c0,1.1-0.9,2-2,2H2C0.9,100,0,99.1,0,98z"/>
	<path class="st0" d="M0,24.7v-22C0,1.2,1.2,0,2.6,0h94.8c1.4,0,2.6,1.2,2.6,2.8v22c0,1.5-1.2,2.8-2.6,2.8H2.6
		C1.2,27.5,0,26.3,0,24.7z"/>
	<path class="st1" d="M0,61.8V38.2c0-1.1,0.9-2,2-2h96c1.1,0,2,0.9,2,2v23.6c0,1.1-0.9,2-2,2H2C0.9,63.8,0,62.9,0,61.8z"/>
</g>
</svg>
